<svg xmlns="http://www.w3.org/2000/svg" width="113" height="22" viewBox="0 0 113 22"><g><g><path fill="#fff" d="M110 7h-4V3h4zm0 11H95V9h1.181c-.118.491-.18.995-.181 1.5a6.5 6.5 0 0 0 13 0 6.45 6.45 0 0 0-.181-1.5H110zm-7.5-11c1.93 0 3.5 1.57 3.5 3.5s-1.57 3.5-3.5 3.5-3.5-1.57-3.5-3.5 1.57-3.5 3.5-3.5zm7.5-7H95c-1.65 0-3 1.35-3 3v15c0 1.65 1.35 3 3 3h15c1.65 0 3-1.35 3-3V3c0-1.65-1.35-3-3-3z"/></g><g><path fill="#fff" d="M64 4V0h-4a4 4 0 0 0-4 4v4h-4v4h4v10h4V12h4V8h-4V4z"/></g><g><path fill="#fff" d="M15.54 14.729c.92-.29 2.1 1.912 3.354 2.755.942.639 1.663.5 1.663.5l3.345-.046s1.747-.105.921-1.457c-.068-.112-.484-1.002-2.489-2.833-2.096-1.915-1.812-1.605.712-4.916 1.537-2.019 2.153-3.252 1.96-3.777-.185-.505-1.314-.374-1.314-.374l-3.768.026c-.367 0-.678.111-.82.482-.003.004-.598 1.562-1.391 2.887-1.677 2.802-2.346 2.951-2.623 2.776-.637-.406-.476-1.628-.476-2.498 0-2.715.416-3.848-.815-4.14-.41-.098-.711-.162-1.76-.171-1.34-.02-2.479 0-3.124.308-.428.21-.757.668-.557.694.25.033.811.15 1.112.55.386.517.374 1.677.374 1.677s.22 3.197-.52 3.594c-.508.272-1.203-.283-2.699-2.827-.763-1.302-1.34-2.74-1.34-2.74s-.112-.267-.314-.413a1.576 1.576 0 0 0-.578-.229l-3.576.022s-.538.015-.735.246c-.175.204-.015.626-.015.626s2.802 6.451 5.974 9.7c2.908 2.984 6.213 2.786 6.213 2.786h1.497s.452-.05.683-.293c.216-.225.206-.647.206-.647s-.03-1.978.9-2.268z"/></g></g></svg>